<?xml version="1.0" encoding="utf-8"?>
<!-- Generator: Adobe Illustrator 16.0.0, SVG Export Plug-In . SVG Version: 6.00 Build 0)  -->
<!DOCTYPE svg PUBLIC "-//W3C//DTD SVG 1.1//EN" "http://www.w3.org/Graphics/SVG/1.1/DTD/svg11.dtd">
<svg version="1.1" id="Layer_1" xmlns="http://www.w3.org/2000/svg" xmlns:xlink="http://www.w3.org/1999/xlink" x="0px" y="0px"
	 width="139px" height="120px" viewBox="0 0 139 120" enable-background="new 0 0 139 120" xml:space="preserve">
<g>
	<g>
		<g>
			<path fill-rule="evenodd" clip-rule="evenodd" fill="#EB623C" d="M90.631,15c7.618,0,15.238,0,22.854,0.001
				c0.265,0,0.526,0.005,0.788,0.012c0.677,0.021,1.231,0.608,1.288,1.303c0.014,0.141,0.006,0.281,0.006,0.423
				c0,7.72,0,15.44,0,23.159c0,0.385,0,0.768-0.062,1.148c-0.014,0.1-0.019,0.201-0.023,0.302c-0.033,0.749-0.144,1.487-0.237,2.229
				c-0.157,1.243-0.392,2.474-0.663,3.694c-0.583,2.582-1.373,5.105-2.387,7.553c-1.408,3.396-3.184,6.578-5.406,9.508
				c-1.936,2.555-4.143,4.856-6.615,6.896c-2.425,2.004-5.04,3.711-7.838,5.146c-0.144,0.074-0.289,0.145-0.436,0.215
				c-0.469,0.229-0.962,0.283-1.474,0.234c-0.132-0.014-0.219-0.117-0.202-0.252c0.123-1.002,0.334-1.986,0.637-2.954
				c0.512-1.646,1.231-3.2,2.059-4.708c0.947-1.72,2.009-3.365,3.133-4.972c0.752-1.076,1.519-2.142,2.293-3.204
				c1.766-2.434,3.191-5.051,4.257-7.861c0.735-1.95,1.294-3.949,1.666-6.002c0.143-0.814,0.261-1.633,0.366-2.453
				c0.232-1.79,0.257-3.586,0.24-5.385c-0.005-0.484-0.011-0.97-0.029-1.453c-0.011-0.324-0.043-0.646-0.067-0.969
				c-0.014-0.2-0.03-0.402-0.044-0.604c-0.026-0.303-0.057-0.604-0.08-0.904c-0.014-0.141-0.027-0.282-0.038-0.423
				c-0.03-0.302-0.048-0.604-0.087-0.905c-0.083-0.617,0.009-1.207,0.265-1.773c0.24-0.538,0.566-1.021,0.949-1.471
				c0.871-1.021,1.888-1.883,2.974-2.658c0.168-0.118,0.327-0.24,0.488-0.361c0.057-0.045,0.064-0.172,0.014-0.221
				c-0.086-0.084-0.172-0.172-0.267-0.242c-0.658-0.488-1.397-0.809-2.185-1.016c-0.525-0.14-1.06-0.256-1.609-0.275
				c-0.119-0.004-0.24-0.023-0.361-0.037c-0.502-0.056-1.006-0.066-1.512-0.025c-0.785,0.064-1.572,0.106-2.344,0.282
				c-0.127,0.029-0.236-0.007-0.354-0.047c-0.477-0.157-0.957-0.323-1.439-0.457c-0.763-0.21-1.537-0.339-2.318-0.446
				c-1.27-0.174-2.54-0.138-3.812-0.093c-0.442,0.015-0.885,0.077-1.324,0.144c-2.709,0.41-5.229,1.347-7.598,2.713
				c-0.698,0.404-1.412,0.781-2.111,1.19c-0.409,0.242-0.852,0.354-1.312,0.419c-0.76,0.107-1.519,0.223-2.278,0.332
				c-0.421,0.059-0.839,0.11-1.259,0.166c-0.422,0.057-0.842,0.115-1.26,0.172c-0.482,0.063-0.963,0.124-1.442,0.191
				c-0.14,0.02-0.274,0.047-0.415,0.078c-0.097,0.025-0.151,0.15-0.107,0.242c0.043,0.092,0.08,0.187,0.137,0.27
				c0.191,0.285,0.37,0.581,0.588,0.843c0.373,0.44,0.286,0.444-0.143,0.597c-1.577,0.562-3.154,1.125-4.783,1.535
				c-0.312,0.078-0.631,0.138-0.946,0.211c-0.057,0.014-0.108,0.045-0.161,0.07c-0.044,0.021-0.084,0.113-0.068,0.157
				c0.03,0.074,0.057,0.151,0.101,0.218c0.256,0.416,0.582,0.775,0.94,1.102c0.516,0.462,1.082,0.846,1.677,1.192
				c0.804,0.468,1.653,0.845,2.524,1.173c0.631,0.235,0.648,0.168,0.283,0.823c-0.408,0.725-0.904,1.388-1.445,2.016
				c-0.68,0.78-1.426,1.489-2.211,2.157c-1.111,0.945-2.293,1.791-3.52,2.58c-0.08,0.053-0.175,0.093-0.264,0.139
				c-0.043,0.021-0.141-0.021-0.148-0.07c-0.059-0.276-0.121-0.551-0.164-0.828c-0.08-0.479-0.162-0.957-0.221-1.437
				c-0.064-0.521-0.108-1.045-0.162-1.567c-0.012-0.1-0.008-0.202-0.024-0.302c-0.1-0.663-0.092-1.329-0.092-1.996
				c0-7.497,0-14.994,0-22.491c0-0.203-0.003-0.404,0.003-0.606c0.024-0.526,0.275-0.919,0.723-1.188
				c0.14-0.085,0.291-0.146,0.455-0.151c0.265-0.01,0.526-0.025,0.787-0.025C72.544,14.999,77.313,15,82.081,15
				C84.934,15,87.78,15,90.631,15z"/>
			<path fill-rule="evenodd" clip-rule="evenodd" fill="#EB623C" d="M36.804,87.249c0,0.525-0.008,1.051,0.003,1.577
				c0.005,0.349-0.161,0.582-0.466,0.712c-1.287,0.55-2.613,0.711-3.973,0.327c-1.15-0.327-2.005-1.032-2.51-2.128
				c-0.256-0.558-0.429-1.139-0.434-1.758c-0.006-0.359-0.008-0.721,0-1.079c0.016-0.763,0.227-1.477,0.606-2.13
				c0.73-1.265,1.841-1.948,3.292-2.09c0.75-0.072,1.488-0.033,2.217,0.189c0.318,0.097,0.628,0.21,0.908,0.398
				c0.328,0.229,0.439,0.45,0.318,0.934c-0.014,0.048-0.146,0.109-0.203,0.094c-0.178-0.062-0.353-0.148-0.522-0.238
				c-0.593-0.32-1.229-0.496-1.901-0.53c-0.471-0.021-0.938,0.032-1.385,0.191c-1.114,0.396-1.742,1.226-2.063,2.321
				c-0.265,0.9-0.245,1.807,0.02,2.702c0.296,1.004,0.895,1.767,1.9,2.159c0.89,0.35,1.782,0.343,2.667-0.015
				c0.078-0.03,0.153-0.069,0.221-0.114c0.119-0.08,0.213-0.191,0.215-0.338c0.009-0.743,0.006-1.49-0.002-2.237
				c0-0.173-0.135-0.315-0.311-0.333c-0.271-0.025-0.549-0.033-0.824-0.049c-0.305-0.015-0.606-0.02-0.912-0.043
				c-0.109-0.008-0.204-0.072-0.25-0.188c-0.064-0.171-0.043-0.391,0.057-0.467c0.043-0.035,0.092-0.062,0.143-0.08
				s0.107-0.027,0.162-0.027c0.83-0.002,1.66-0.002,2.488-0.002c0.057,0,0.111,0.011,0.164,0.018c0.151,0.02,0.33,0.175,0.348,0.316
				c0.02,0.137,0.027,0.275,0.027,0.412c0.006,0.498,0.003,0.996,0.003,1.494C36.804,87.249,36.804,87.249,36.804,87.249z"/>
			<path fill-rule="evenodd" clip-rule="evenodd" fill="#EB623C" d="M51.064,87.853c0-1.215-0.003-2.432,0-3.648
				c0-0.219,0.005-0.441,0.024-0.66c0.031-0.297,0.447-0.459,0.715-0.28c0.042,0.026,0.086,0.081,0.094,0.13
				c0.035,0.188,0.054,0.381,0.084,0.57c0.016,0.103,0.178,0.164,0.264,0.103c0.202-0.148,0.396-0.3,0.596-0.45
				c0.723-0.538,1.534-0.602,2.367-0.389c0.529,0.135,0.922,0.502,1.186,0.977c0.136,0.238,0.252,0.496,0.321,0.761
				c0.28,1.034,0.278,2.077-0.007,3.11c-0.074,0.264-0.192,0.52-0.324,0.76c-0.553,1.008-1.635,1.349-2.609,1.205
				c-0.305-0.045-0.583-0.178-0.836-0.352c-0.182-0.125-0.356-0.261-0.535-0.391c-0.08-0.057-0.261,0.012-0.266,0.105
				c-0.02,0.164-0.038,0.328-0.038,0.492c-0.003,0.635,0,1.271-0.003,1.906c-0.002,0.166-0.02,0.33-0.029,0.496
				c-0.008,0.082-0.133,0.224-0.216,0.228c-0.161,0.012-0.329,0.019-0.491,0.005c-0.115-0.008-0.213-0.101-0.231-0.207
				c-0.04-0.217-0.062-0.438-0.064-0.656C51.059,90.396,51.064,89.124,51.064,87.853z M55.833,86.572c0-0.144,0.003-0.311,0-0.475
				c-0.013-0.361-0.104-0.71-0.229-1.046c-0.315-0.857-1.291-1.522-2.43-0.783c-0.229,0.148-0.426,0.346-0.633,0.526
				c-0.334,0.288-0.48,0.645-0.451,1.099c0.03,0.467,0.006,0.938,0.009,1.406c0,0.138-0.005,0.276,0.013,0.412
				c0.02,0.105,0.055,0.219,0.113,0.305c0.291,0.409,0.647,0.748,1.092,0.991c0.537,0.293,1.352,0.279,1.885-0.327
				c0.205-0.233,0.354-0.494,0.451-0.785C55.79,87.474,55.871,87.042,55.833,86.572z"/>
			<path fill-rule="evenodd" clip-rule="evenodd" fill="#EB623C" d="M58.854,84.943c0-1.327,0-2.651,0-3.978
				c0-0.193,0.005-0.387,0.019-0.58c0.006-0.154,0.167-0.312,0.324-0.329c0.08-0.009,0.164-0.015,0.247-0.013
				c0.315,0.01,0.45,0.137,0.454,0.459c0.008,0.721,0.005,1.438,0.005,2.155c0.003,0.249-0.009,0.497,0.005,0.746
				c0.008,0.179-0.072,0.415,0.156,0.505c0.176,0.07,0.297-0.104,0.43-0.192c0.043-0.031,0.088-0.065,0.131-0.101
				c0.586-0.444,1.24-0.564,1.959-0.457c0.654,0.1,1.118,0.455,1.41,1.031c0.137,0.27,0.23,0.561,0.242,0.871
				c0.01,0.304,0.045,0.607,0.049,0.91c0.005,1.051,0.005,2.101,0,3.149c0,0.192-0.027,0.384-0.057,0.573
				c-0.022,0.118-0.114,0.186-0.228,0.217c-0.164,0.045-0.328,0.053-0.485-0.02c-0.066-0.033-0.153-0.098-0.166-0.16
				c-0.039-0.188-0.055-0.383-0.055-0.576c-0.006-1.021-0.006-2.044-0.003-3.066c0.003-0.361-0.019-0.719-0.14-1.062
				c-0.057-0.154-0.122-0.309-0.199-0.452c-0.292-0.508-1.027-0.735-1.519-0.549c-0.343,0.134-0.64,0.319-0.908,0.566
				c-0.101,0.093-0.192,0.198-0.289,0.294c-0.235,0.223-0.339,0.485-0.337,0.812c0.014,1.022,0.006,2.045,0.003,3.068
				c-0.003,0.303-0.014,0.605-0.026,0.908c-0.004,0.098-0.109,0.201-0.209,0.229c-0.191,0.057-0.383,0.06-0.571-0.003
				c-0.11-0.037-0.19-0.121-0.208-0.235c-0.021-0.192-0.031-0.385-0.031-0.577C58.854,87.707,58.854,86.327,58.854,84.943z"/>
			<path fill-rule="evenodd" clip-rule="evenodd" fill="#EB623C" d="M72.521,86.591c0.037,0.408-0.06,0.871-0.197,1.317
				c-0.394,1.271-1.232,1.963-2.561,2.14c-0.518,0.07-1.041,0.026-1.557-0.119c-0.801-0.227-1.348-0.72-1.689-1.464
				c-0.055-0.124-0.105-0.257-0.139-0.389c-0.14-0.647-0.27-1.296-0.152-1.964c0.068-0.406,0.104-0.818,0.273-1.205
				c0.448-1.018,1.203-1.619,2.319-1.75c0.413-0.05,0.822-0.037,1.237,0c0.9,0.074,1.912,0.643,2.287,1.977
				C72.485,85.642,72.525,85.958,72.521,86.591z M71.447,86.634c0.038-0.475-0.046-0.938-0.192-1.385
				c-0.215-0.649-0.644-1.096-1.318-1.256c-0.239-0.057-0.492-0.068-0.738-0.056c-0.682,0.042-1.219,0.351-1.553,0.953
				c-0.119,0.215-0.199,0.454-0.27,0.692c-0.213,0.709-0.164,1.424,0.021,2.127c0.062,0.237,0.167,0.472,0.294,0.68
				c0.274,0.447,0.682,0.711,1.208,0.793c0.388,0.061,0.776,0.061,1.148-0.059c0.594-0.19,0.979-0.613,1.189-1.188
				C71.394,87.521,71.479,87.087,71.447,86.634z"/>
			<path fill-rule="evenodd" clip-rule="evenodd" fill="#EB623C" d="M43.913,83.202c0.176,0,0.262-0.003,0.344,0.002
				c0.18,0.008,0.318,0.095,0.393,0.257c0.092,0.202,0.178,0.404,0.252,0.612c0.409,1.143,0.811,2.287,1.218,3.432
				c0.073,0.207,0.14,0.418,0.219,0.623c0.097,0.262,0.208,0.379,0.3,0.34c0.143-0.062,0.186-0.191,0.231-0.321
				c0.444-1.306,0.887-2.611,1.337-3.916c0.086-0.261,0.191-0.517,0.297-0.772c0.07-0.168,0.21-0.251,0.391-0.256
				c0.135-0.003,0.275,0.008,0.41,0.019c0.094,0.009,0.197,0.151,0.184,0.244c-0.012,0.081-0.017,0.164-0.041,0.243
				c-0.049,0.157-0.105,0.313-0.159,0.47c-0.911,2.517-1.819,5.034-2.731,7.55c-0.062,0.18-0.135,0.361-0.218,0.533
				c-0.075,0.158-0.214,0.261-0.388,0.278c-0.162,0.016-0.33,0.007-0.494,0.001c-0.133-0.004-0.254-0.177-0.207-0.299
				c0.175-0.466,0.355-0.927,0.531-1.392c0.086-0.232,0.193-0.462,0.236-0.702c0.049-0.258-0.15-0.464-0.234-0.695
				c-0.676-1.837-1.369-3.669-2.055-5.504c-0.057-0.154-0.097-0.314-0.141-0.475c-0.023-0.08,0.092-0.234,0.173-0.248
				C43.844,83.212,43.927,83.202,43.913,83.202z"/>
			<path fill-rule="evenodd" clip-rule="evenodd" fill="#EB623C" d="M74.44,86.532c0-0.83-0.004-1.658,0-2.488
				c0.002-0.192,0.013-0.387,0.029-0.578c0.006-0.118,0.146-0.242,0.285-0.254c0.107-0.008,0.222-0.01,0.33,0.008
				c0.112,0.019,0.207,0.094,0.226,0.211c0.035,0.161,0.044,0.328,0.07,0.491c0.017,0.106,0.167,0.169,0.259,0.106
				c0.154-0.115,0.311-0.229,0.458-0.35c0.675-0.547,1.442-0.666,2.265-0.477c0.513,0.115,0.891,0.427,1.146,0.884
				c0.178,0.319,0.283,0.659,0.315,1.022c0.019,0.191,0.024,0.385,0.024,0.58c0.003,1.188,0.003,2.375,0.003,3.563
				c0,0.054,0,0.11-0.003,0.165c-0.014,0.416-0.11,0.57-0.637,0.51c-0.176-0.022-0.294-0.148-0.307-0.335
				c-0.012-0.219-0.02-0.439-0.02-0.661c-0.002-0.802-0.005-1.603-0.002-2.404c0.004-0.445-0.041-0.882-0.114-1.318
				c-0.042-0.252-0.147-0.473-0.282-0.686c-0.273-0.428-0.971-0.692-1.465-0.498c-0.258,0.102-0.512,0.207-0.723,0.394
				c-0.204,0.182-0.398,0.38-0.59,0.578c-0.138,0.144-0.216,0.317-0.216,0.524c0.003,0.221-0.003,0.441-0.003,0.66
				c-0.002,1.052-0.006,2.102,0,3.152c0,0.503-0.15,0.668-0.733,0.594c-0.024-0.003-0.054-0.014-0.081-0.02
				c-0.102-0.024-0.205-0.129-0.21-0.229c-0.014-0.192-0.024-0.385-0.026-0.578C74.437,88.245,74.44,87.39,74.44,86.532z"/>
			<path fill-rule="evenodd" clip-rule="evenodd" fill="#EB623C" d="M83.623,90.06c-0.534,0.016-1.038-0.111-1.523-0.33
				c-0.251-0.115-0.378-0.309-0.364-0.591c0.003-0.082,0.014-0.164,0.021-0.245c0.008-0.076,0.119-0.162,0.179-0.139
				c0.126,0.053,0.256,0.098,0.378,0.161c0.271,0.14,0.558,0.231,0.852,0.31c0.42,0.114,0.824,0.072,1.224-0.064
				c0.658-0.225,0.812-0.766,0.658-1.32c-0.035-0.125-0.13-0.252-0.229-0.336c-0.167-0.141-0.354-0.268-0.547-0.361
				c-0.3-0.145-0.617-0.245-0.92-0.383c-0.248-0.113-0.501-0.232-0.729-0.386c-0.496-0.325-0.732-0.791-0.743-1.396
				c-0.014-0.923,0.509-1.505,1.354-1.753c0.616-0.182,1.262-0.143,1.884,0.018c0.133,0.034,0.265,0.094,0.381,0.162
				c0.245,0.137,0.337,0.351,0.297,0.627c-0.021,0.146-0.162,0.246-0.3,0.191c-0.151-0.061-0.302-0.129-0.456-0.189
				c-0.453-0.176-0.914-0.207-1.385-0.109c-0.283,0.055-0.51,0.201-0.666,0.447c-0.227,0.352-0.199,0.764,0.066,1.076
				c0.203,0.236,0.465,0.392,0.744,0.514c0.252,0.111,0.516,0.196,0.766,0.306c0.254,0.112,0.508,0.226,0.744,0.362
				c1.23,0.701,1.012,2.428-0.016,3.039c-0.389,0.232-0.812,0.344-1.256,0.389C83.897,90.071,83.761,90.06,83.623,90.06z"/>
			<path fill-rule="evenodd" clip-rule="evenodd" fill="#EB623C" d="M39.196,86.489c0-0.83-0.006-1.66,0-2.49
				c0-0.19,0.026-0.383,0.045-0.575c0.011-0.086,0.135-0.194,0.232-0.21c0.057-0.01,0.113-0.012,0.164-0.01
				c0.211,0.003,0.329,0.086,0.367,0.264c0.035,0.161,0.054,0.327,0.092,0.487c0.01,0.048,0.056,0.099,0.1,0.12
				c0.08,0.043,0.153,0.01,0.215-0.054c0.06-0.061,0.117-0.12,0.174-0.178c0.099-0.101,0.195-0.198,0.291-0.296
				c0.312-0.314,0.7-0.44,1.132-0.419c0.188,0.011,0.383,0.054,0.565,0.106c0.068,0.02,0.139,0.104,0.162,0.174
				c0.082,0.213,0.084,0.435-0.002,0.645c-0.017,0.041-0.09,0.086-0.133,0.084c-0.219-0.01-0.439-0.035-0.658-0.056
				c-0.291-0.026-0.549,0.065-0.771,0.244c-0.392,0.315-0.696,0.71-0.914,1.163c-0.07,0.143-0.083,0.32-0.089,0.481
				c-0.011,0.583-0.002,1.163-0.008,1.741c-0.003,0.637-0.009,1.271-0.021,1.906c-0.003,0.179-0.133,0.291-0.324,0.312
				c-0.026,0.002-0.057,0.009-0.083,0.009c-0.055,0-0.111,0-0.165-0.007c-0.211-0.028-0.318-0.096-0.34-0.295
				c-0.026-0.221-0.031-0.442-0.031-0.662C39.19,88.146,39.196,87.319,39.196,86.489L39.196,86.489z"/>
		</g>
		<g>
			<path fill-rule="evenodd" clip-rule="evenodd" fill="#19ACE1" d="M52.051,66.71c0-1.537,0-3.072-0.005-4.607
				c0-0.203-0.014-0.404-0.025-0.605c0-0.057-0.099-0.158-0.153-0.17c-0.077-0.015-0.159-0.035-0.237-0.039
				c-0.161-0.008-0.322-0.012-0.484-0.012c-2.123,0-4.244,0-6.366,0.002c-0.224,0-0.444,0.016-0.666,0.033
				c-0.138,0.011-0.224,0.104-0.231,0.232c-0.011,0.181-0.017,0.363-0.017,0.544c0,1.214,0,2.425,0,3.638c0,1.535,0,3.072,0,4.607
				c0,0.485,0.024,0.969,0.116,1.447c0.067,0.339,0.159,0.668,0.31,0.978c0.302,0.618,0.815,0.938,1.483,1.011
				c0.568,0.059,1.129,0.016,1.669-0.2c0.224-0.089,0.453-0.17,0.683-0.248c0.134-0.048,0.291,0.03,0.35,0.161
				c0.068,0.148,0.116,0.303,0.116,0.467c0,0.304,0.003,0.605-0.005,0.909c-0.009,0.477-0.251,0.792-0.69,0.97
				c-0.378,0.151-0.771,0.238-1.171,0.3c-0.08,0.013-0.162,0.005-0.239,0.022c-0.667,0.137-1.332,0.048-1.993-0.03
				c-0.482-0.057-0.943-0.206-1.381-0.433c-0.73-0.379-1.244-0.956-1.568-1.706c-0.207-0.481-0.329-0.995-0.401-1.515
				c-0.097-0.642-0.116-1.286-0.116-1.934c0.005-2.789,0.002-5.578,0.002-8.367c0-0.223-0.01-0.443-0.018-0.665
				c-0.004-0.063-0.092-0.165-0.152-0.173c-0.161-0.018-0.32-0.044-0.482-0.047c-0.363-0.006-0.728-0.002-1.089-0.004
				c-0.165-0.002-0.326,0.002-0.488-0.01c-0.294-0.021-0.479-0.117-0.563-0.525c-0.027-0.138-0.043-0.281-0.043-0.421
				c0.008-0.282,0.02-0.565,0.055-0.847c0.01-0.113,0.078-0.225,0.135-0.33c0.051-0.093,0.135-0.152,0.242-0.162
				c0.162-0.012,0.323-0.023,0.482-0.023c0.404-0.004,0.809,0,1.214-0.004c0.14,0,0.282-0.002,0.425-0.018
				c0.176-0.02,0.262-0.105,0.273-0.268c0.008-0.182,0.01-0.363,0.01-0.545c0-0.85,0-1.698,0-2.547c0-0.16,0-0.323,0.009-0.484
				c0.009-0.229,0.167-0.416,0.401-0.467c0.178-0.039,0.355-0.073,0.537-0.091c0.488-0.049,0.967-0.023,1.447,0.083
				c0.121,0.026,0.229,0.084,0.308,0.177c0.054,0.059,0.105,0.134,0.116,0.208c0.019,0.158,0.019,0.322,0.019,0.484
				c0,0.889,0,1.776,0,2.666c0,0.182,0.006,0.363,0.017,0.545c0.008,0.115,0.118,0.224,0.242,0.235
				c0.119,0.012,0.24,0.021,0.361,0.021c2.303,0.002,4.607,0.004,6.91,0c0.617-0.001,0.65-0.035,0.65-0.652
				c0.005-1.172,0.002-2.344,0.005-3.516c0-0.183,0-0.363,0.011-0.546c0.008-0.156,0.105-0.267,0.243-0.32
				c0.226-0.089,0.461-0.15,0.708-0.151c0.281-0.002,0.564,0.002,0.848-0.004c0.248-0.004,0.482,0.061,0.714,0.135
				c0.187,0.061,0.306,0.193,0.315,0.4c0.008,0.181,0.008,0.363,0.008,0.545c0.004,1.151,0.004,2.303,0,3.455
				c0,0.58,0.009,0.658,0.647,0.656c1.009-0.002,2.022-0.001,3.03,0.002c0.184,0,0.365,0.004,0.545,0.016
				c0.181,0.011,0.291,0.123,0.367,0.277c0.186,0.385,0.184,1.338-0.009,1.723c-0.077,0.153-0.194,0.26-0.369,0.276
				c-0.181,0.017-0.361,0.024-0.545,0.024c-0.948,0.004-1.9,0-2.85,0.004c-0.202,0.002-0.401,0.021-0.601,0.041
				c-0.105,0.01-0.187,0.1-0.197,0.2c-0.008,0.121-0.016,0.241-0.016,0.362c0,2.951,0,5.9,0,8.852c0,0.529,0.08,1.047,0.23,1.552
				c0.049,0.153,0.105,0.308,0.17,0.453c0.303,0.647,0.831,0.966,1.529,1.034c0.612,0.062,1.205-0.039,1.779-0.256
				c0.189-0.069,0.378-0.14,0.572-0.205c0.1-0.035,0.256,0.049,0.293,0.157c0.044,0.113,0.092,0.226,0.108,0.345
				c0.057,0.464,0.069,0.926-0.062,1.383c-0.06,0.205-0.17,0.367-0.354,0.471c-0.156,0.091-0.32,0.17-0.49,0.232
				c-0.34,0.125-0.696,0.205-1.061,0.24c-1.023,0.101-1.067,0.11-2.052-0.013c-0.544-0.067-1.067-0.224-1.55-0.495
				c-0.699-0.393-1.174-0.979-1.47-1.711c-0.1-0.242-0.186-0.492-0.247-0.748c-0.17-0.688-0.258-1.387-0.254-2.099
				C52.051,69.618,52.051,68.164,52.051,66.71L52.051,66.71z"/>
			<path fill-rule="evenodd" clip-rule="evenodd" fill="#19ACE1" d="M79.428,67.985c-1.518,0-3.033,0-4.546,0
				c-0.184,0-0.363-0.002-0.547,0.004c-0.221,0.006-0.308,0.08-0.303,0.283c0.008,0.402,0.012,0.81,0.057,1.209
				c0.043,0.359,0.133,0.714,0.216,1.066c0.108,0.479,0.311,0.918,0.566,1.333c0.413,0.673,0.979,1.179,1.686,1.522
				c0.566,0.273,1.167,0.426,1.798,0.505c0.809,0.101,1.615,0.065,2.418-0.028c0.764-0.09,1.508-0.28,2.23-0.541
				c0.38-0.137,0.756-0.285,1.127-0.437c0.191-0.077,0.383-0.138,0.588-0.118c0.129,0.011,0.234,0.072,0.285,0.191
				c0.039,0.093,0.079,0.191,0.084,0.288c0.008,0.364,0.014,0.728-0.003,1.089c-0.013,0.326-0.181,0.57-0.469,0.729
				c-0.34,0.184-0.696,0.323-1.06,0.447c-0.574,0.195-1.165,0.334-1.758,0.45c-1.032,0.2-2.076,0.312-3.131,0.269
				c-0.992-0.041-1.971-0.174-2.914-0.5c-1.359-0.473-2.47-1.272-3.273-2.478c-0.461-0.696-0.785-1.456-1-2.263
				c-0.231-0.881-0.383-1.775-0.391-2.689c-0.008-0.504-0.014-1.01,0-1.516c0.023-1.181,0.24-2.324,0.649-3.435
				c0.294-0.8,0.701-1.542,1.243-2.206c0.951-1.165,2.17-1.92,3.617-2.295c0.667-0.172,1.347-0.266,2.042-0.258
				c0.563,0.008,1.126,0.02,1.688,0.119c2.359,0.417,4.009,1.712,4.888,3.953c0.266,0.678,0.404,1.391,0.502,2.114
				c0.086,0.644,0.092,1.288,0.092,1.935c0,0.183-0.027,0.359-0.084,0.535c-0.097,0.315-0.31,0.519-0.611,0.617
				c-0.173,0.055-0.355,0.078-0.537,0.098c-0.158,0.016-0.323,0.006-0.482,0.006C82.536,67.985,80.983,67.985,79.428,67.985z
				 M78.463,65.903c1.231,0,2.458,0,3.688,0c0.18,0,0.363-0.006,0.545-0.014c0.126-0.008,0.234-0.11,0.244-0.229
				c0.008-0.099,0.022-0.2,0.014-0.3c-0.026-0.647-0.127-1.282-0.334-1.897c-0.111-0.325-0.262-0.633-0.445-0.922
				c-0.512-0.8-1.232-1.322-2.146-1.562c-0.649-0.172-1.311-0.211-1.979-0.145c-1.164,0.114-2.105,0.641-2.844,1.537
				c-0.523,0.633-0.834,1.371-1.025,2.165c-0.086,0.374-0.162,0.749-0.135,1.136c0.006,0.098,0.095,0.199,0.187,0.206
				c0.181,0.011,0.361,0.022,0.544,0.024C76.004,65.904,77.233,65.903,78.463,65.903z"/>
			<path fill-rule="evenodd" clip-rule="evenodd" fill="#19ACE1" d="M23.431,63.64c0-3.797,0-7.592,0.004-11.388
				c0-0.202-0.004-0.403,0.002-0.606c0.011-0.219,0.141-0.392,0.346-0.442c0.178-0.043,0.355-0.077,0.535-0.097
				c0.508-0.051,1.009-0.037,1.505,0.074c0.041,0.01,0.081,0.015,0.118,0.032c0.176,0.081,0.309,0.202,0.321,0.404
				c0.014,0.201,0.011,0.403,0.011,0.605c0.003,4.624,0.003,9.247,0.003,13.872c0,2.969,0,5.938-0.003,8.905
				c0,0.202,0.003,0.404-0.014,0.604c-0.013,0.15-0.104,0.266-0.242,0.328c-0.201,0.094-0.418,0.148-0.643,0.152
				c-0.344,0.003-0.687,0.003-1.029,0.002c-0.204,0-0.398-0.054-0.593-0.116c-0.199-0.062-0.305-0.191-0.313-0.396
				c-0.004-0.202-0.004-0.404-0.004-0.605C23.431,71.192,23.431,67.416,23.431,63.64z"/>
			<path fill-rule="evenodd" clip-rule="evenodd" fill="#19ACE1" d="M63.69,63.501c0-3.795,0-7.592,0-11.389
				c0-0.201,0.006-0.402,0.006-0.605c0.005-0.188,0.123-0.288,0.274-0.363c0.035-0.018,0.075-0.029,0.112-0.038
				c0.68-0.155,1.362-0.147,2.045,0.004c0.223,0.051,0.375,0.239,0.389,0.478c0.008,0.143,0.008,0.283,0.008,0.426
				c0,7.672,0,15.344,0,23.018c0,0.161,0.002,0.323-0.014,0.483c-0.014,0.149-0.1,0.266-0.237,0.33
				c-0.202,0.098-0.419,0.154-0.642,0.157c-0.343,0.004-0.688,0.016-1.03-0.002c-0.199-0.01-0.396-0.061-0.591-0.112
				c-0.21-0.057-0.307-0.182-0.314-0.394c-0.006-0.201-0.006-0.402-0.006-0.605C63.69,71.093,63.69,67.298,63.69,63.501z"/>
			<path fill-rule="evenodd" clip-rule="evenodd" fill="#19ACE1" d="M31.897,67.438c0-2.481,0-4.965,0-7.447
				c0-0.201,0-0.403,0.014-0.604c0.013-0.239,0.113-0.351,0.357-0.424c0.453-0.135,1.523-0.147,1.979-0.023
				c0.057,0.016,0.116,0.03,0.173,0.053c0.164,0.064,0.256,0.189,0.291,0.359c0.02,0.078,0.024,0.16,0.027,0.24
				c0.005,0.141,0.005,0.281,0.005,0.422c0,4.945,0,9.889,0,14.833c-0.003,0.202-0.003,0.405-0.019,0.605
				c-0.02,0.218-0.135,0.37-0.356,0.439c-0.501,0.161-1.64,0.165-2.151-0.004c-0.037-0.013-0.075-0.028-0.11-0.048
				c-0.089-0.055-0.167-0.125-0.179-0.231c-0.016-0.222-0.031-0.443-0.031-0.663C31.895,72.444,31.897,69.94,31.897,67.438z"/>
			<path fill-rule="evenodd" clip-rule="evenodd" fill="#19ACE1" d="M92.278,35.497c-0.008,0.18-0.022,0.342-0.027,0.502
				c-0.006,0.164-0.057,0.316-0.107,0.469c-0.1,0.29-0.303,0.471-0.578,0.581c-0.037,0.015-0.075,0.026-0.115,0.036
				c-0.611,0.166-1.229,0.17-1.852,0.018c-0.445-0.109-0.701-0.395-0.783-0.824c-0.1-0.52-0.097-1.049,0.006-1.566
				c0.086-0.454,0.372-0.737,0.839-0.844c0.582-0.133,1.159-0.141,1.736,0.008c0.116,0.03,0.229,0.079,0.337,0.129
				c0.172,0.078,0.288,0.219,0.367,0.387c0.091,0.202,0.152,0.415,0.155,0.641C92.259,35.193,92.272,35.356,92.278,35.497z"/>
		</g>
	</g>
	<g>
		<path fill="#19ACE1" d="M50.978,104.652c0,0.042-0.011,0.078-0.031,0.106c-0.021,0.029-0.055,0.055-0.104,0.074
			c-0.045,0.021-0.113,0.038-0.197,0.049c-0.083,0.011-0.19,0.016-0.317,0.016c-0.132,0-0.237-0.005-0.323-0.016
			s-0.154-0.027-0.203-0.049c-0.049-0.02-0.083-0.045-0.107-0.074c-0.019-0.028-0.029-0.064-0.029-0.106v-4.333
			c0-0.301-0.027-0.576-0.081-0.824c-0.052-0.248-0.138-0.461-0.253-0.641c-0.116-0.18-0.265-0.318-0.443-0.412
			c-0.18-0.096-0.391-0.143-0.633-0.143c-0.302,0-0.604,0.116-0.909,0.349c-0.302,0.231-0.636,0.572-1,1.022v4.981
			c0,0.042-0.013,0.078-0.032,0.106c-0.021,0.029-0.057,0.055-0.107,0.074c-0.049,0.021-0.119,0.038-0.203,0.049
			c-0.083,0.011-0.188,0.016-0.314,0.016c-0.122,0-0.227-0.005-0.316-0.016c-0.084-0.011-0.153-0.027-0.204-0.049
			c-0.049-0.02-0.084-0.045-0.101-0.074c-0.021-0.028-0.029-0.064-0.029-0.106v-4.333c0-0.301-0.029-0.576-0.086-0.824
			c-0.06-0.248-0.146-0.461-0.265-0.641c-0.112-0.18-0.259-0.318-0.437-0.412c-0.178-0.096-0.386-0.143-0.629-0.143
			c-0.304,0-0.609,0.116-0.91,0.349c-0.308,0.231-0.643,0.572-1.001,1.022v4.981c0,0.042-0.011,0.078-0.03,0.106
			c-0.021,0.029-0.057,0.055-0.104,0.074c-0.049,0.021-0.112,0.038-0.196,0.049c-0.087,0.011-0.195,0.016-0.324,0.016
			s-0.234-0.005-0.32-0.016c-0.081-0.011-0.15-0.027-0.199-0.049c-0.052-0.02-0.087-0.045-0.104-0.074
			c-0.019-0.028-0.029-0.064-0.029-0.106v-7.13c0-0.04,0.008-0.077,0.024-0.106c0.017-0.027,0.048-0.056,0.097-0.079
			c0.047-0.023,0.105-0.039,0.182-0.047c0.074-0.009,0.17-0.013,0.293-0.013c0.117,0,0.213,0.004,0.289,0.013
			c0.078,0.008,0.135,0.023,0.178,0.047s0.072,0.052,0.092,0.079c0.019,0.029,0.027,0.066,0.027,0.106v0.942
			c0.401-0.448,0.793-0.776,1.17-0.984c0.375-0.21,0.758-0.315,1.143-0.315c0.297,0,0.561,0.038,0.799,0.105
			c0.231,0.067,0.439,0.164,0.619,0.289c0.178,0.123,0.332,0.271,0.459,0.443c0.127,0.171,0.231,0.362,0.318,0.572
			c0.236-0.256,0.463-0.477,0.676-0.656c0.214-0.18,0.418-0.325,0.618-0.436c0.199-0.11,0.392-0.191,0.579-0.241
			c0.187-0.05,0.375-0.077,0.566-0.077c0.459,0,0.844,0.082,1.154,0.243c0.312,0.161,0.566,0.378,0.758,0.647
			c0.193,0.268,0.328,0.582,0.412,0.945c0.081,0.361,0.121,0.742,0.121,1.145V104.652z"/>
		<path fill="#19ACE1" d="M60.315,101.009c0,0.58-0.076,1.115-0.229,1.604c-0.151,0.488-0.38,0.909-0.685,1.264
			c-0.303,0.354-0.684,0.63-1.141,0.828c-0.457,0.197-0.984,0.296-1.588,0.296c-0.586,0-1.098-0.086-1.532-0.261
			c-0.437-0.174-0.798-0.428-1.089-0.761s-0.508-0.736-0.65-1.212c-0.143-0.477-0.213-1.014-0.213-1.617
			c0-0.579,0.073-1.115,0.227-1.604c0.148-0.488,0.377-0.908,0.682-1.262c0.303-0.354,0.683-0.629,1.136-0.825
			c0.452-0.194,0.983-0.294,1.594-0.294c0.585,0,1.097,0.09,1.53,0.265c0.436,0.173,0.799,0.426,1.09,0.759
			c0.289,0.333,0.507,0.736,0.652,1.212C60.245,99.875,60.315,100.411,60.315,101.009z M58.962,101.097
			c0-0.387-0.035-0.75-0.108-1.096c-0.07-0.342-0.188-0.645-0.353-0.9c-0.168-0.261-0.392-0.465-0.675-0.614
			c-0.283-0.151-0.631-0.226-1.055-0.226c-0.388,0-0.722,0.066-1,0.204c-0.283,0.14-0.513,0.331-0.692,0.583
			c-0.184,0.25-0.316,0.549-0.404,0.893c-0.09,0.342-0.133,0.717-0.133,1.123c0,0.392,0.035,0.758,0.108,1.102
			c0.072,0.343,0.19,0.644,0.36,0.898c0.168,0.257,0.395,0.459,0.674,0.61c0.284,0.151,0.635,0.227,1.055,0.227
			c0.386,0,0.717-0.068,1.001-0.208c0.28-0.137,0.512-0.328,0.695-0.576c0.181-0.248,0.312-0.545,0.399-0.887
			C58.921,101.886,58.962,101.506,58.962,101.097z"/>
		<path fill="#19ACE1" d="M68.705,104.652c0,0.042-0.011,0.078-0.032,0.106c-0.021,0.029-0.055,0.055-0.103,0.074
			c-0.049,0.021-0.112,0.038-0.197,0.049c-0.086,0.011-0.19,0.016-0.317,0.016c-0.133,0-0.24-0.005-0.324-0.016
			c-0.086-0.011-0.152-0.027-0.199-0.049c-0.045-0.02-0.08-0.045-0.102-0.074c-0.022-0.028-0.033-0.064-0.033-0.106v-4.175
			c0-0.406-0.029-0.734-0.094-0.982c-0.065-0.248-0.157-0.461-0.278-0.641c-0.122-0.18-0.277-0.318-0.472-0.412
			c-0.191-0.096-0.415-0.143-0.669-0.143c-0.329,0-0.652,0.116-0.981,0.349c-0.326,0.231-0.672,0.572-1.029,1.022v4.981
			c0,0.042-0.012,0.078-0.033,0.106c-0.021,0.029-0.057,0.055-0.102,0.074c-0.049,0.021-0.113,0.038-0.2,0.049
			c-0.083,0.011-0.19,0.016-0.323,0.016c-0.127,0-0.232-0.005-0.318-0.016c-0.084-0.011-0.15-0.027-0.202-0.049
			c-0.049-0.02-0.083-0.045-0.103-0.074c-0.016-0.028-0.027-0.064-0.027-0.106v-7.13c0-0.04,0.009-0.077,0.027-0.106
			c0.014-0.027,0.047-0.056,0.092-0.079c0.049-0.023,0.107-0.039,0.184-0.047c0.072-0.009,0.17-0.013,0.294-0.013
			c0.112,0,0.21,0.004,0.286,0.013c0.077,0.008,0.137,0.023,0.18,0.047c0.044,0.023,0.073,0.052,0.092,0.079
			c0.02,0.029,0.027,0.066,0.027,0.106v0.942c0.398-0.448,0.801-0.776,1.199-0.984c0.4-0.21,0.801-0.315,1.209-0.315
			c0.475,0,0.875,0.082,1.199,0.243c0.323,0.161,0.588,0.378,0.787,0.647c0.202,0.268,0.346,0.582,0.435,0.945
			c0.086,0.361,0.129,0.795,0.129,1.303V104.652z"/>
		<path fill="#19ACE1" d="M74.968,104.13c0,0.152-0.008,0.274-0.031,0.363c-0.02,0.091-0.052,0.156-0.092,0.198
			c-0.043,0.042-0.105,0.083-0.191,0.12c-0.086,0.035-0.182,0.066-0.289,0.09c-0.11,0.023-0.224,0.044-0.346,0.059
			c-0.121,0.016-0.242,0.025-0.363,0.025c-0.369,0-0.688-0.05-0.951-0.146c-0.265-0.099-0.48-0.246-0.65-0.445
			c-0.167-0.196-0.291-0.447-0.366-0.75c-0.079-0.304-0.116-0.662-0.116-1.075v-4.165h-0.998c-0.078,0-0.143-0.044-0.191-0.127
			c-0.045-0.084-0.07-0.221-0.07-0.413c0-0.099,0.006-0.183,0.02-0.253c0.014-0.068,0.029-0.125,0.051-0.17
			c0.024-0.046,0.049-0.076,0.086-0.094c0.033-0.02,0.074-0.029,0.113-0.029h0.99v-1.695c0-0.037,0.011-0.072,0.027-0.103
			c0.021-0.031,0.054-0.06,0.104-0.084c0.048-0.022,0.116-0.04,0.202-0.052c0.084-0.01,0.189-0.016,0.315-0.016
			c0.132,0,0.243,0.006,0.326,0.016c0.083,0.012,0.148,0.029,0.197,0.052c0.048,0.024,0.081,0.053,0.104,0.084
			c0.02,0.03,0.03,0.065,0.03,0.103v1.695h1.831c0.04,0,0.078,0.01,0.11,0.029c0.029,0.018,0.06,0.048,0.083,0.094
			c0.021,0.045,0.041,0.102,0.049,0.17c0.011,0.07,0.016,0.154,0.016,0.253c0,0.192-0.021,0.329-0.066,0.413
			c-0.052,0.083-0.113,0.127-0.191,0.127h-1.831v3.975c0,0.492,0.073,0.861,0.219,1.113s0.404,0.377,0.778,0.377
			c0.121,0,0.229-0.012,0.326-0.036c0.096-0.023,0.179-0.048,0.251-0.074c0.075-0.026,0.141-0.052,0.194-0.076
			c0.051-0.024,0.1-0.036,0.141-0.036c0.023,0,0.051,0.007,0.074,0.021c0.025,0.013,0.044,0.039,0.058,0.075
			c0.013,0.038,0.024,0.088,0.032,0.15C74.963,103.956,74.968,104.034,74.968,104.13z"/>
		<path fill="#19ACE1" d="M82.931,100.778c0,0.207-0.051,0.354-0.154,0.439c-0.105,0.086-0.224,0.131-0.354,0.131h-4.699
			c0,0.396,0.041,0.754,0.125,1.068c0.077,0.318,0.21,0.591,0.396,0.817c0.187,0.227,0.427,0.401,0.723,0.523
			c0.3,0.12,0.661,0.182,1.089,0.182c0.34,0,0.645-0.026,0.909-0.083c0.267-0.057,0.496-0.118,0.69-0.187
			c0.193-0.069,0.35-0.131,0.477-0.187c0.125-0.055,0.219-0.084,0.28-0.084c0.038,0,0.073,0.01,0.103,0.029
			c0.027,0.019,0.051,0.045,0.064,0.084c0.017,0.035,0.03,0.086,0.038,0.153c0.005,0.065,0.011,0.148,0.011,0.241
			c0,0.07-0.002,0.128-0.008,0.179c-0.006,0.05-0.011,0.095-0.02,0.134c-0.008,0.039-0.021,0.076-0.04,0.107
			s-0.043,0.062-0.069,0.091c-0.03,0.03-0.116,0.078-0.26,0.143c-0.143,0.065-0.326,0.131-0.553,0.194
			c-0.229,0.062-0.49,0.12-0.789,0.17c-0.297,0.051-0.615,0.075-0.955,0.075c-0.585,0-1.1-0.081-1.539-0.245
			c-0.442-0.164-0.809-0.407-1.113-0.729c-0.3-0.321-0.526-0.728-0.684-1.213c-0.15-0.485-0.229-1.05-0.229-1.694
			c0-0.612,0.081-1.163,0.237-1.651c0.159-0.488,0.389-0.903,0.688-1.244c0.296-0.339,0.657-0.602,1.08-0.783
			c0.422-0.182,0.896-0.275,1.416-0.275c0.561,0,1.037,0.092,1.432,0.271c0.393,0.18,0.717,0.42,0.968,0.724
			c0.256,0.305,0.442,0.661,0.562,1.071c0.118,0.409,0.178,0.846,0.178,1.31V100.778z M81.616,100.39
			c0.014-0.684-0.137-1.224-0.461-1.615c-0.32-0.391-0.797-0.586-1.431-0.586c-0.323,0-0.606,0.061-0.85,0.182
			c-0.245,0.121-0.45,0.283-0.614,0.484c-0.165,0.201-0.294,0.434-0.383,0.701c-0.092,0.267-0.141,0.545-0.154,0.834H81.616z"/>
		<path fill="#19ACE1" d="M89.717,102.712c0,0.363-0.067,0.688-0.2,0.974c-0.135,0.284-0.328,0.524-0.574,0.72
			c-0.25,0.196-0.544,0.345-0.887,0.443C87.71,104.95,87.333,105,86.921,105c-0.254,0-0.494-0.021-0.723-0.06
			c-0.232-0.039-0.438-0.088-0.617-0.15c-0.184-0.06-0.34-0.124-0.467-0.188c-0.124-0.065-0.219-0.127-0.275-0.18
			c-0.059-0.052-0.103-0.126-0.127-0.221c-0.026-0.096-0.039-0.224-0.039-0.387c0-0.103,0.004-0.187,0.016-0.255
			c0.011-0.068,0.023-0.125,0.04-0.167s0.038-0.072,0.064-0.091c0.03-0.019,0.062-0.027,0.101-0.027
			c0.059,0,0.145,0.035,0.256,0.105c0.113,0.072,0.256,0.15,0.423,0.234c0.165,0.084,0.362,0.162,0.588,0.233
			c0.227,0.071,0.487,0.108,0.784,0.108c0.222,0,0.424-0.025,0.602-0.072c0.181-0.049,0.334-0.117,0.469-0.21
			c0.133-0.091,0.235-0.21,0.305-0.354c0.07-0.142,0.105-0.31,0.105-0.507c0-0.199-0.051-0.369-0.153-0.506
			c-0.101-0.139-0.237-0.26-0.407-0.365c-0.17-0.104-0.359-0.199-0.572-0.279c-0.21-0.083-0.428-0.169-0.652-0.26
			c-0.224-0.088-0.441-0.191-0.657-0.303c-0.214-0.115-0.404-0.254-0.575-0.417c-0.166-0.163-0.304-0.358-0.406-0.585
			c-0.103-0.229-0.154-0.5-0.154-0.818c0-0.279,0.055-0.545,0.162-0.803c0.107-0.256,0.27-0.48,0.485-0.674
			c0.218-0.191,0.488-0.348,0.812-0.461c0.326-0.118,0.704-0.178,1.138-0.178c0.192,0,0.38,0.016,0.571,0.049
			c0.189,0.032,0.361,0.072,0.516,0.119c0.153,0.049,0.283,0.1,0.391,0.156c0.107,0.055,0.188,0.104,0.245,0.145
			c0.058,0.043,0.092,0.08,0.111,0.111c0.019,0.031,0.032,0.067,0.04,0.106s0.016,0.089,0.023,0.147
			c0.009,0.057,0.012,0.129,0.012,0.213c0,0.09-0.003,0.17-0.012,0.234c-0.008,0.066-0.021,0.121-0.039,0.162
			c-0.02,0.043-0.041,0.072-0.068,0.092c-0.023,0.018-0.057,0.027-0.086,0.027c-0.045,0-0.115-0.029-0.205-0.088
			c-0.092-0.058-0.207-0.119-0.35-0.186c-0.141-0.066-0.311-0.128-0.502-0.187c-0.194-0.058-0.412-0.087-0.66-0.087
			c-0.225,0-0.421,0.025-0.588,0.076c-0.17,0.049-0.309,0.122-0.416,0.212c-0.109,0.093-0.191,0.204-0.245,0.33
			c-0.057,0.126-0.083,0.265-0.083,0.411c0,0.207,0.053,0.379,0.158,0.52s0.242,0.264,0.41,0.369c0.17,0.105,0.361,0.199,0.58,0.285
			c0.216,0.084,0.437,0.171,0.66,0.261c0.227,0.091,0.447,0.19,0.666,0.301s0.412,0.245,0.58,0.403c0.17,0.157,0.307,0.35,0.41,0.57
			C89.665,102.142,89.717,102.405,89.717,102.712z"/>
		<path fill="#19ACE1" d="M96.387,102.712c0,0.363-0.067,0.688-0.202,0.974c-0.135,0.284-0.323,0.524-0.572,0.72
			c-0.25,0.196-0.547,0.345-0.889,0.443C94.378,104.95,94.003,105,93.591,105c-0.256,0-0.496-0.021-0.725-0.06
			c-0.23-0.039-0.436-0.088-0.617-0.15c-0.184-0.06-0.338-0.124-0.465-0.188c-0.127-0.065-0.219-0.127-0.277-0.18
			c-0.06-0.052-0.1-0.126-0.127-0.221c-0.027-0.096-0.041-0.224-0.041-0.387c0-0.103,0.009-0.187,0.02-0.255
			c0.008-0.068,0.021-0.125,0.038-0.167c0.016-0.042,0.037-0.072,0.067-0.091c0.026-0.019,0.062-0.027,0.1-0.027
			c0.057,0,0.143,0.035,0.256,0.105c0.115,0.072,0.254,0.15,0.421,0.234c0.164,0.084,0.36,0.162,0.591,0.233
			c0.227,0.071,0.487,0.108,0.784,0.108c0.221,0,0.421-0.025,0.602-0.072c0.181-0.049,0.334-0.117,0.466-0.21
			c0.133-0.091,0.234-0.21,0.305-0.354c0.073-0.142,0.111-0.31,0.111-0.507c0-0.199-0.055-0.369-0.156-0.506
			c-0.104-0.139-0.24-0.26-0.41-0.365c-0.168-0.104-0.359-0.199-0.569-0.279c-0.21-0.083-0.429-0.169-0.655-0.26
			c-0.224-0.088-0.441-0.191-0.654-0.303c-0.217-0.115-0.404-0.254-0.575-0.417c-0.17-0.163-0.304-0.358-0.409-0.585
			c-0.104-0.229-0.154-0.5-0.154-0.818c0-0.279,0.055-0.545,0.162-0.803c0.107-0.256,0.272-0.48,0.488-0.674
			c0.215-0.191,0.488-0.348,0.811-0.461c0.324-0.118,0.704-0.178,1.136-0.178c0.191,0,0.383,0.016,0.571,0.049
			c0.191,0.032,0.361,0.072,0.516,0.119c0.153,0.049,0.285,0.1,0.391,0.156c0.11,0.055,0.191,0.104,0.245,0.145
			c0.06,0.043,0.095,0.08,0.113,0.111s0.03,0.067,0.04,0.106c0.006,0.039,0.014,0.089,0.021,0.147
			c0.008,0.057,0.014,0.129,0.014,0.213c0,0.09-0.006,0.17-0.014,0.234c-0.008,0.066-0.019,0.121-0.037,0.162
			c-0.02,0.043-0.043,0.072-0.067,0.092c-0.027,0.018-0.057,0.027-0.089,0.027c-0.046,0-0.116-0.029-0.203-0.088
			c-0.092-0.058-0.21-0.119-0.35-0.186c-0.143-0.066-0.312-0.128-0.504-0.187c-0.194-0.058-0.413-0.087-0.664-0.087
			c-0.219,0-0.415,0.025-0.584,0.076c-0.168,0.049-0.309,0.122-0.416,0.212c-0.107,0.093-0.191,0.204-0.246,0.33
			c-0.056,0.126-0.083,0.265-0.083,0.411c0,0.207,0.054,0.379,0.161,0.52c0.105,0.141,0.24,0.264,0.408,0.369
			c0.172,0.105,0.363,0.199,0.58,0.285c0.215,0.084,0.439,0.171,0.66,0.261c0.227,0.091,0.447,0.19,0.666,0.301
			c0.221,0.11,0.415,0.245,0.582,0.403c0.17,0.157,0.305,0.35,0.41,0.57C96.335,102.142,96.387,102.405,96.387,102.712z"/>
		<path fill="#19ACE1" d="M105.212,101.009c0,0.58-0.078,1.115-0.23,1.604c-0.156,0.488-0.383,0.909-0.688,1.264
			c-0.304,0.354-0.682,0.63-1.141,0.828c-0.455,0.197-0.986,0.296-1.588,0.296c-0.588,0-1.097-0.086-1.533-0.261
			c-0.435-0.174-0.799-0.428-1.086-0.761c-0.293-0.333-0.508-0.736-0.65-1.212c-0.144-0.477-0.216-1.014-0.216-1.617
			c0-0.579,0.078-1.115,0.226-1.604c0.152-0.488,0.378-0.908,0.683-1.262c0.306-0.354,0.683-0.629,1.136-0.825
			c0.455-0.194,0.986-0.294,1.593-0.294c0.585,0,1.098,0.09,1.532,0.265c0.436,0.173,0.801,0.426,1.089,0.759
			c0.291,0.333,0.51,0.736,0.655,1.212C105.136,99.875,105.212,100.411,105.212,101.009z M103.854,101.097
			c0-0.387-0.034-0.75-0.107-1.096c-0.072-0.342-0.191-0.645-0.355-0.9c-0.164-0.261-0.389-0.465-0.672-0.614
			c-0.283-0.151-0.633-0.226-1.057-0.226c-0.389,0-0.723,0.066-1,0.204c-0.28,0.14-0.51,0.331-0.693,0.583
			c-0.18,0.25-0.315,0.549-0.402,0.893c-0.088,0.342-0.131,0.717-0.131,1.123c0,0.392,0.035,0.758,0.107,1.102
			c0.07,0.343,0.191,0.644,0.359,0.898c0.166,0.257,0.393,0.459,0.676,0.61c0.28,0.151,0.634,0.227,1.055,0.227
			c0.383,0,0.717-0.068,1-0.208c0.28-0.137,0.512-0.328,0.693-0.576c0.183-0.248,0.315-0.545,0.401-0.887
			C103.815,101.886,103.854,101.506,103.854,101.097z"/>
		<path fill="#19ACE1" d="M111.626,97.99c0,0.117-0.003,0.214-0.009,0.294c-0.005,0.078-0.016,0.141-0.032,0.185
			c-0.016,0.046-0.035,0.079-0.059,0.104c-0.025,0.023-0.057,0.035-0.098,0.035c-0.046,0-0.094-0.012-0.153-0.035
			c-0.062-0.025-0.13-0.049-0.208-0.07c-0.076-0.025-0.164-0.047-0.256-0.069c-0.098-0.021-0.199-0.03-0.311-0.03
			c-0.132,0-0.262,0.025-0.391,0.078c-0.124,0.053-0.259,0.14-0.396,0.263c-0.143,0.12-0.285,0.282-0.441,0.482
			c-0.154,0.2-0.321,0.446-0.508,0.735v4.69c0,0.042-0.01,0.078-0.032,0.106c-0.019,0.029-0.054,0.055-0.1,0.074
			c-0.049,0.021-0.116,0.038-0.197,0.049c-0.086,0.011-0.196,0.016-0.326,0.016c-0.126,0-0.231-0.005-0.317-0.016
			c-0.084-0.011-0.152-0.027-0.203-0.049c-0.051-0.02-0.083-0.045-0.102-0.074c-0.02-0.028-0.027-0.064-0.027-0.106v-7.13
			c0-0.04,0.008-0.077,0.021-0.106c0.019-0.027,0.049-0.056,0.098-0.079c0.045-0.023,0.107-0.039,0.18-0.047
			c0.076-0.009,0.174-0.013,0.294-0.013c0.116,0,0.214,0.004,0.289,0.013c0.078,0.008,0.138,0.023,0.181,0.047
			c0.04,0.023,0.07,0.052,0.088,0.079c0.02,0.029,0.027,0.066,0.027,0.106v1.038c0.197-0.284,0.381-0.518,0.553-0.697
			c0.17-0.179,0.332-0.319,0.486-0.423c0.153-0.104,0.305-0.176,0.458-0.215c0.147-0.039,0.302-0.061,0.452-0.061
			c0.068,0,0.148,0.006,0.234,0.014c0.087,0.008,0.179,0.024,0.273,0.043c0.094,0.021,0.181,0.046,0.256,0.072
			c0.078,0.026,0.133,0.053,0.164,0.079c0.032,0.026,0.052,0.051,0.064,0.075c0.009,0.025,0.02,0.055,0.025,0.091
			c0.01,0.036,0.013,0.091,0.019,0.163C111.626,97.773,111.626,97.869,111.626,97.99z"/>
		<path fill="#19ACE1" d="M114.898,95.116c0,0.305-0.06,0.515-0.175,0.625c-0.119,0.111-0.332,0.165-0.643,0.165
			c-0.307,0-0.518-0.053-0.63-0.16c-0.116-0.109-0.171-0.314-0.171-0.614c0-0.307,0.06-0.514,0.174-0.627
			c0.115-0.111,0.331-0.166,0.645-0.166c0.304,0,0.514,0.055,0.627,0.162C114.839,94.609,114.898,94.814,114.898,95.116z
			 M114.747,104.652c0,0.042-0.01,0.078-0.031,0.106c-0.022,0.029-0.058,0.055-0.104,0.074c-0.051,0.021-0.113,0.038-0.199,0.049
			s-0.191,0.016-0.323,0.016c-0.127,0-0.231-0.005-0.317-0.016c-0.084-0.011-0.152-0.027-0.203-0.049
			c-0.049-0.02-0.084-0.045-0.103-0.074c-0.019-0.028-0.026-0.064-0.026-0.106v-7.13c0-0.036,0.008-0.07,0.026-0.102
			c0.019-0.032,0.054-0.059,0.103-0.078c0.051-0.022,0.119-0.037,0.203-0.049c0.086-0.01,0.19-0.017,0.317-0.017
			c0.132,0,0.237,0.007,0.323,0.017c0.086,0.012,0.148,0.026,0.199,0.049c0.046,0.02,0.081,0.046,0.104,0.078
			c0.021,0.031,0.031,0.065,0.031,0.102V104.652z"/>
	</g>
</g>
</svg>
